<?xml version="1.0" encoding="utf-8"?>
<!-- Generator: Adobe Illustrator 16.0.0, SVG Export Plug-In . SVG Version: 6.00 Build 0)  -->
<!DOCTYPE svg PUBLIC "-//W3C//DTD SVG 1.1//EN" "http://www.w3.org/Graphics/SVG/1.1/DTD/svg11.dtd">
<svg version="1.1" id="Layer_1" xmlns="http://www.w3.org/2000/svg" xmlns:xlink="http://www.w3.org/1999/xlink" x="0px" y="0px"
	 width="511.282px" height="508.548px" viewBox="0 0 511.282 508.548" enable-background="new 0 0 511.282 508.548"
	 xml:space="preserve">
<g>
	<path fill="#010101" d="M400.94,75.332v1.76c-0.206,9.627-3.831,35.198-32.092,63.15c-1.553,1.554-3.108,3.21-4.453,4.658
		l-15.219,15.219c-7.97-0.932-16.043-1.863-24.018-2.796c-15.319-1.758-30.537-3.52-45.756-5.384c-0.83,0-1.348,0.104-1.969,0.725
		c-1.864,1.761-3.726,3.521-5.693,5.383c-0.932,0.83-0.932,0.83,0.206,1.347c17.497,8.489,34.89,17.082,52.385,25.569
		l-43.377,43.482L273.293,236l-34.681,34.683c-1.76,1.759-3.726,3.21-6.003,4.969l-7.556,7.56l-4.868,4.865L97.094,411.165H6.303
		l152.906-152.801L4.545,103.698h104.041l99.075,99.072l27.745-27.64l-0.518-0.623l57.457-57.454
		c26.604-26.401,37.682-51.039,33.23-73.09c-4.142-19.981-20.292-32.816-31.058-39.339c2.38-0.104,4.659-0.104,6.937-0.104
		c77.539,0,97.107,36.544,99.383,68.738C400.835,73.985,400.835,74.607,400.94,75.332"/>
	<path fill="#010101" d="M347.108,331.865l137.479,137.587H380.648l-82.094-82.096L181.882,504.028l-97.729-1.034l183.341-183.449
		c1.864-1.654,3.625-2.998,6.214-4.966l38.613-38.616l0.624-0.932l1.033-1.654l5.279-5.284l43.997-43.891
		c1.863,3.413,3.729,6.728,5.59,10.144c6.626,12.113,13.253,24.122,19.983,36.234c0.413,0.725,0.619,0.933,1.242,0.104
		c1.655-2.072,3.416-4.037,5.176-6.108c0.519-0.517,0.62-1.141,0.519-1.863c-1.347-7.972-2.693-15.943-4.039-23.914
		c-2.072-12.32-4.142-24.64-6.209-36.958l1.652-1.656c4.658-4.763,8.802-9.008,12.424-13.666c0.415-0.312,0.829-0.932,1.349-1.345
		c28.466-30.955,41.824-62.219,39.752-92.862c-1.761-28.676-16.876-50.107-27.33-61.7c25.156,9.006,81.99,33.437,91.412,71.742
		c10.145,42.03-21.844,84.165-32.509,97.003l-0.311-0.933l-3.413,4.555c-19.362,26.296-41.202,48.761-49.694,57.148L347.108,331.865
		z"/>
</g>
</svg>
