<svg id="Capa_1" enable-background="new 0 0 512 512" height="512" viewBox="0 0 512 512" width="512" xmlns="http://www.w3.org/2000/svg"><g><g><path clip-rule="evenodd" d="m207.223 46.84c47.459 0 86.369 38.81 86.369 86.146v65.383h46.961v-65.383c.001-73.209-59.96-132.986-133.33-132.986s-133.331 59.777-133.331 132.986v65.383h46.961v-65.383c.001-47.336 38.911-86.146 86.37-86.146z" fill="#dedbee" fill-rule="evenodd"/></g><g><path clip-rule="evenodd" d="m340.554 132.986c0-73.209-59.961-132.986-133.331-132.986-15.019 0-29.483 2.511-42.98 7.125 5.387-.672 10.862-1.022 16.425-1.022 73.37 0 133.331 59.806 133.331 132.986v59.28h26.555z" fill="#d2cfe9" fill-rule="evenodd"/></g><g><path clip-rule="evenodd" d="m68.242 188.091c-27.697 0-50.358 22.602-50.358 50.228v74.728c0 103.872 85.198 188.85 189.339 188.85 35.426 0 68.656-9.841 97.056-26.895l92.283-178.425v-58.258c0-27.625-22.661-50.228-50.358-50.228-92.663 0-185.298 0-277.962 0z" fill="#fdb441" fill-rule="evenodd"/></g><g><path clip-rule="evenodd" d="m207.223 261.563c-22.632 0-40.989 18.28-40.989 40.854 0 14.572 7.641 27.333 19.118 34.604l-8.603 55.912c-.28 1.817 1.126 3.456 2.965 3.456h55.016c1.839 0 3.245-1.639 2.965-3.456l-8.603-55.912c11.477-7.271 19.118-20.033 19.118-34.604.002-22.574-18.355-40.854-40.987-40.854z" fill="#025f80" fill-rule="evenodd"/></g><g><path clip-rule="evenodd" d="m385.847 296.051c-59.785 0-108.24 48.329-108.24 107.96 0 27.187 10.072 52.009 26.672 70.99 19.85 22.661 49.04 36.999 81.568 36.999 59.785 0 108.269-48.359 108.269-107.989 0-56.01-42.775-102.061-97.553-107.434-3.514-.351-7.086-.526-10.716-.526z" fill="#01d0fb" fill-rule="evenodd"/></g><g><path clip-rule="evenodd" d="m200.489 262.089c15.4 5.986 26.35 21.113 26.35 38.81 0 14.805-7.641 27.771-19.118 35.159l9.135 60.331h17.876c1.839 0 3.245-1.639 2.965-3.456l-8.603-55.912c11.477-7.271 19.118-20.033 19.118-34.604 0-22.573-18.357-40.854-40.989-40.854-2.283 0-4.538.175-6.734.526z" fill="#024c67" fill-rule="evenodd"/></g><g><path clip-rule="evenodd" d="m494.116 404.011c0-56.01-42.775-102.061-97.553-107.434-3.513-.35-7.085-.526-10.716-.526-7.641 0-15.137.788-22.339 2.307 54.632 5.49 97.29 51.483 97.29 107.434 0 51.98-36.861 95.374-85.901 105.653 3.601.35 7.261.555 10.95.555 59.785 0 108.269-48.359 108.269-107.989z" fill="#01c0fa" fill-rule="evenodd"/></g><g><path clip-rule="evenodd" d="m396.562 238.318c0-27.625-22.661-50.228-50.358-50.228h-5.651-26.555-20.407c27.697 0 50.358 22.602 50.358 50.228v66.114c6.236-2.599 12.794-4.672 19.558-6.074 7.202-1.518 14.697-2.307 22.339-2.307 3.63 0 7.202.175 10.716.526z" fill="#fe9901" fill-rule="evenodd"/></g><g><path d="m385.847 446.342c-4.268 0-7.726-3.459-7.726-7.726v-34.751c0-4.267 3.459-7.726 7.726-7.726 7.112 0 13.721-2.838 18.613-7.989 4.855-5.114 7.327-11.814 6.96-18.867-.696-13.275-11.689-23.887-25.026-24.156-.178-.004-.357-.006-.535-.006-12.751 0-23.6 9.343-25.355 21.936-.163 1.207-.247 2.421-.247 3.576 0 4.267-3.459 7.726-7.726 7.726s-7.726-3.459-7.726-7.726c0-1.845.132-3.756.391-5.678 2.865-20.552 20.704-35.686 41.513-35.279 21.39.432 39.025 17.475 40.144 38.8.59 11.33-3.382 22.094-11.184 30.312-5.932 6.247-13.716 10.449-22.094 12.063v27.764c-.002 4.267-3.46 7.727-7.728 7.727z" fill="#f4eafa"/></g><g><path d="m385.856 478.377c-.422 0-.849-.034-1.28-.106-4.208-.702-7.052-4.683-6.35-8.891l.029-.175c.701-4.209 4.672-7.057 8.891-6.351 4.208.702 7.052 4.683 6.351 8.891l-.029.175c-.63 3.779-3.903 6.457-7.612 6.457z" fill="#f4eafa"/></g></g></svg>