<?xml version="1.0" encoding="utf-8"?>
<!-- Generator: Adobe Illustrator 16.0.0, SVG Export Plug-In . SVG Version: 6.00 Build 0)  -->
<!DOCTYPE svg PUBLIC "-//W3C//DTD SVG 1.1//EN" "http://www.w3.org/Graphics/SVG/1.1/DTD/svg11.dtd">
<svg version="1.1" id="Layer_1" xmlns="http://www.w3.org/2000/svg" xmlns:xlink="http://www.w3.org/1999/xlink" x="0px" y="0px"
	 width="659.936px" height="120.129px" viewBox="0 0 659.936 120.129" enable-background="new 0 0 659.936 120.129"
	 xml:space="preserve">
<g>
	<g>
		<polygon fill="#FFFFFF" points="139.041,47.333 157.617,47.333 157.617,98.007 165.277,98.007 165.277,47.333 183.847,47.333 
			186.952,40.144 135.75,40.144 		"/>
		<path fill="#FFFFFF" d="M223.98,78.532c0.531-0.229,1.141-0.305,1.597-0.532c3.345-1.596,5.929-3.877,7.754-6.918
			c1.749-2.965,2.661-6.614,2.661-10.796s-0.912-7.754-2.661-10.795c-1.825-3.041-4.409-5.322-7.754-6.918
			c-3.345-1.598-7.451-2.434-12.165-2.434h-21.134v57.854h7.755V47.362h13.152c4.94,0,8.667,1.064,11.251,3.345
			c2.585,2.281,3.801,5.474,3.801,9.579c0,4.182-1.216,7.375-3.801,9.654c-2.584,2.281-6.311,3.422-11.251,3.422h-0.989l4.485,6.767
			h0.076l11.708,17.865h8.438L223.98,78.532z"/>
		<polygon fill="#FFFFFF" points="282.366,40.143 264.957,70.668 247.62,40.143 239.336,40.143 260.851,77.856 260.851,98.008 
			268.513,98.008 268.513,77.99 290.028,40.143 		"/>
		<path fill="#FFFFFF" d="M337.94,49.49c-1.824-3.041-4.408-5.321-7.754-6.918c-3.345-1.597-7.375-2.433-12.164-2.433h-21.135
			v57.854h7.754V47.362h13.153c4.941,0,8.742,1.064,11.251,3.345c2.585,2.28,3.878,5.474,3.878,9.579
			c0,4.182-1.293,7.374-3.878,9.579c-2.509,2.281-6.31,3.421-11.251,3.421h-7.983v7.223h8.211c4.789,0,8.819-0.836,12.164-2.434
			c3.346-1.672,5.93-3.953,7.754-6.994c1.825-2.965,2.737-6.613,2.737-10.795S339.766,52.531,337.94,49.49"/>
		<polygon fill="#FFFFFF" points="362.007,73.044 388.163,73.044 388.163,64.197 362.007,64.197 362.007,49.233 391.496,49.233 
			386.478,40.143 351.946,40.143 351.946,98.008 387.702,98.008 392.58,88.912 362.007,88.912 		"/>
		<polygon fill="#FFFFFF" points="520.508,73.044 546.664,73.044 546.664,64.197 520.508,64.197 520.508,49.233 549.996,49.233 
			544.979,40.143 510.447,40.143 510.447,98.008 546.203,98.008 551.08,88.912 520.508,88.912 		"/>
		<polygon fill="#FFFFFF" points="447.527,40.143 436.613,40.143 422.961,60.571 409.063,40.143 397.606,40.143 416.667,68.438 
			396.604,98.008 408.061,98.008 422.586,75.983 437.311,98.008 448.84,98.008 428.57,68.085 		"/>
		<path fill="#FFFFFF" d="M497.592,49.643c-1.824-3.117-4.484-5.398-7.906-7.07c-3.422-1.597-7.602-2.433-12.391-2.433h-22.277
			v57.854h10.113V49.263h11.707c4.486,0,7.83,0.988,10.035,2.965c2.279,2.052,3.346,4.865,3.346,8.515s-1.066,6.462-3.346,8.438
			c-2.205,2.053-5.549,3.042-10.035,3.042h-5.625v9.122h6.082c4.789,0,8.969-0.912,12.391-2.584c3.422-1.673,6.082-4.03,7.906-7.071
			c1.826-3.041,2.814-6.689,2.814-10.947C500.406,56.408,499.418,52.76,497.592,49.643"/>
		<path fill="#FFFFFF" d="M596.045,78.912c0.303-0.076,0.607-0.152,0.912-0.229c3.42-1.673,6.082-4.028,7.906-7.069
			s2.813-6.614,2.813-10.872c0-4.333-0.988-7.982-2.813-11.1s-4.486-5.397-7.906-7.07c-3.498-1.597-7.604-2.433-12.393-2.433
			h-22.275v57.854h10.035V49.263h11.783c4.486,0,7.756,0.988,10.035,2.965c2.281,2.053,3.346,4.865,3.346,8.515
			c0,3.648-1.064,6.462-3.346,8.515c-2.279,2.053-5.549,3.041-10.035,3.041h-3.268l5.701,8.667h0.076l11.1,17.029h10.871
			L596.045,78.912z"/>
		<polygon fill="#FFFFFF" points="605.979,40.143 611.135,49.233 629.088,49.233 629.088,98.008 639.146,98.008 639.146,49.233 
			657.107,49.233 659.936,40.143 		"/>
	</g>
	<g>
		<polygon fill="#FFFFFF" points="49.157,70.635 48.951,70.518 49.011,70.459 		"/>
		<polygon fill="#FFFFFF" points="49.157,70.635 48.951,70.518 49.011,70.459 		"/>
		<polygon fill="#FFFFFF" points="62.754,67.177 62.694,67.235 62.549,67.06 		"/>
		<polygon fill="#FFFFFF" points="62.754,67.177 62.694,67.235 62.549,67.06 		"/>
		<polygon fill="#FFFFFF" points="51.092,72.104 50.893,71.99 50.949,71.934 		"/>
		<polygon fill="#FFFFFF" points="51.092,72.104 50.893,71.99 50.949,71.934 		"/>
		<polygon fill="#FFFFFF" points="64.284,68.749 64.228,68.806 64.085,68.636 		"/>
		<polygon fill="#FFFFFF" points="64.284,68.749 64.228,68.806 64.085,68.636 		"/>
		<path fill="#FFFFFF" d="M95.331,17.029v0.424c-0.05,2.315-0.921,8.465-7.718,15.187c-0.373,0.374-0.747,0.772-1.071,1.121
			l-3.659,3.659c-1.917-0.224-3.858-0.447-5.776-0.671c-3.685-0.424-7.345-0.848-11.004-1.295c-0.2,0-0.324,0.024-0.474,0.174
			c-0.448,0.424-0.896,0.847-1.37,1.295c-0.224,0.199-0.224,0.199,0.051,0.323c4.208,2.042,8.391,4.108,12.598,6.149L66.476,53.853
			l-1.843,1.818l-8.341,8.341c-0.423,0.423-0.896,0.771-1.443,1.194l-1.818,1.818l-1.17,1.17L22.258,97.796H0.422l36.773-36.748
			L0,23.852h25.021l23.827,23.827l6.673-6.647l-0.124-0.15l13.817-13.817c6.398-6.35,9.063-12.274,7.992-17.578
			c-0.996-4.806-4.881-7.893-7.469-9.46C70.31,0,70.857,0,71.405,0c18.647,0,23.354,8.789,23.901,16.531
			C95.307,16.705,95.307,16.854,95.331,17.029"/>
		<polygon fill="#FFFFFF" points="53.056,67.994 53.006,68.045 53.205,68.169 		"/>
		<polygon fill="#FFFFFF" points="51.082,72.108 50.883,71.995 50.939,71.938 		"/>
		<polygon fill="#FFFFFF" points="51.082,72.108 50.883,71.995 50.939,71.938 		"/>
		<path fill="#FFFFFF" d="M82.385,78.726l33.063,33.089H90.452L70.708,92.07l-28.06,28.059l-23.503-0.248l44.093-44.118
			c0.448-0.398,0.872-0.722,1.494-1.195l9.287-9.286l0.149-0.225l0.248-0.398l1.271-1.27l10.581-10.557
			c0.448,0.821,0.896,1.619,1.345,2.44c1.593,2.913,3.188,5.801,4.805,8.714c0.1,0.174,0.15,0.225,0.3,0.025
			c0.398-0.499,0.821-0.972,1.244-1.47c0.125-0.124,0.149-0.273,0.125-0.448c-0.324-1.917-0.647-3.834-0.971-5.751
			c-0.499-2.963-0.997-5.926-1.494-8.888l0.398-0.398c1.12-1.146,2.115-2.167,2.987-3.287c0.1-0.075,0.2-0.225,0.324-0.323
			c6.846-7.444,10.059-14.964,9.56-22.333c-0.423-6.897-4.058-12.052-6.572-14.839c6.051,2.166,19.719,8.041,21.984,17.254
			c2.439,10.107-5.253,20.241-7.818,23.328l-0.074-0.224l-0.821,1.095c-4.657,6.324-9.909,11.728-11.951,13.744L82.385,78.726z"/>
		<polygon fill="#FFFFFF" points="64.274,68.754 64.217,68.811 64.075,68.64 		"/>
		<polygon fill="#FFFFFF" points="64.274,68.754 64.217,68.811 64.075,68.64 		"/>
		<polygon fill="#FFFFFF" points="74.417,64.658 75.687,63.389 75.687,63.439 74.169,65.057 		"/>
	</g>
</g>
<rect x="21.968" y="-154.936" fill="none" width="616.106" height="430.549"/>
</svg>
