<svg id="Layer_1" enable-background="new 0 0 68 68" viewBox="0 0 68 68" xmlns="http://www.w3.org/2000/svg"><g><g><g><g><g><g><g><path d="m57.88672 66h-39.23145c-.41406 0-.75-.33594-.75-.75s.33594-.75.75-.75c3.22266 0 5.84375-2.61719 5.84375-5.83398v-1.68848c0-1.51563 1.23242-2.74805 2.74805-2.74805h35.22559c1.51563 0 2.74805 1.23242 2.74805 2.74805v1.68848c-.00001 4.04394-3.29005 7.33398-7.33399 7.33398zm-34.78613-1.5h34.78613c3.2168 0 5.83398-2.61719 5.83398-5.83398v-1.68848c0-.68848-.55957-1.24805-1.24805-1.24805h-35.22558c-.68848 0-1.24805.55957-1.24805 1.24805v1.68848c0 2.37695-1.13769 4.49316-2.89843 5.83398z"/></g></g><g><g><path d="m18.6543 65.99512c-.04297 0-.08496 0-.12695-.00098-2.44043-.04492-5.34961-1.35156-5.34961-7.3252v-50.96093c0-.41406.33594-.75.75-.75s.75.33594.75.75v50.96094c0 5.75488 2.91797 5.80762 3.87695 5.8252 1.50488.05762 2.92969-.56445 4.05176-1.66602 1.2002-1.17871 1.88867-2.80273 1.88867-4.4541v-1.35254c0-1.51563 1.23242-2.74805 2.74805-2.74805h29.91895v-46.56543c0-.18262-.00781-.29688-.02246-.41016-.11622-1.37305-.88575-2.57422-2.06056-3.25195-.51758-.2959-1.08105-.4707-1.67578-.51855-.16504-.01954-.31055-.02735-.44922-.02735h-37.1748c-.41406 0-.75-.33594-.75-.75s.33593-.75.75-.75h37.1748c.19531 0 .40332.01172.59766.03418.78906.06348 1.56348.30371 2.27441.71191 1.60254.92285 2.65039 2.56348 2.80371 4.38965.02051.14258.03223.32324.03223.50293v47.38477c0 .41406-.33594.75-.75.75h-30.66895c-.68848 0-1.24805.55957-1.24805 1.24805v1.35254c0 2.05176-.85254 4.06543-2.33789 5.52441-1.37988 1.35449-3.15234 2.09668-5.00292 2.09668z"/></g></g></g><g><g><path d="m13.92969 21.98633h-8.40235c-1.51563 0-2.74805-1.23242-2.74805-2.74805v-11.2793c0-1.67773.71289-3.28711 1.95508-4.41406 1.25684-1.13965 2.89063-1.67383 4.58204-1.51172 3.00781.29297 5.36328 2.99609 5.36328 6.1543v13.04883c0 .41406-.33594.75-.75.75zm-5.20899-18.48242c-1.10742 0-2.15137.40039-2.97852 1.15137-.92968.84374-1.46288 2.04785-1.46288 3.3037v11.2793c0 .68848.55957 1.24805 1.24805 1.24805h7.65234v-12.29883c0-2.39453-1.76074-4.44238-4.00879-4.66211-.15039-.01465-.30078-.02148-.4502-.02148z"/></g></g><g><g><g><path d="m13.92969 8.70215c-.41406 0-.75-.33594-.75-.75 0-2.45313-1.99609-4.44824-4.44922-4.44824-.41406 0-.75-.33594-.75-.75s.33594-.75.75-.75h44.22852c.41406 0 .75.33594.75.75s-.33594.75-.75.75h-40.2832c1.22852 1.09082 2.00391 2.68066 2.00391 4.44824-.00001.41406-.33595.75-.75001.75z"/></g></g><g><g><path d="m57.91211 8.42383c-.41406 0-.75-.30176-.75-.71582 0-.18262-.00781-.29688-.02246-.41113-.13281-1.36523-.91211-2.56641-2.08789-3.23926-.52344-.29688-1.08301-.47559-1.66016-.53223-.15332-.01758-.29883-.02539-.4375-.02539h-37.1748c-.41406 0-.75-.33594-.75-.75s.33593-.75.75-.75h37.1748c.19531 0 .40332.01172.59766.03418.77246.0752 1.53223.31738 2.24219.71973 1.60059.91602 2.65918 2.5498 2.83496 4.37207.02148.15234.0332.33301.0332.5127 0 .41405-.33594.78515-.75.78515z"/></g></g><g><g><path d="m57.93164 8.45605c-.41406 0-.75488-.33594-.75488-.75s.33105-.75.74512-.75h.00977c.41504 0 .75.33594.75.75s-.33497.75-.75001.75z"/></g></g></g></g></g><g><g><g><path d="m24.07813 18.1875c-2.87695 0-5.2168-2.33984-5.2168-5.21484 0-2.87695 2.33984-5.2168 5.2168-5.2168s5.21777 2.33984 5.21777 5.2168c0 2.875-2.34082 5.21484-5.21777 5.21484zm0-8.93164c-2.0498 0-3.7168 1.66699-3.7168 3.7168 0 2.04883 1.66699 3.71484 3.7168 3.71484s3.71777-1.66602 3.71777-3.71484c0-2.04981-1.66797-3.7168-3.71777-3.7168z" fill="#0d6efd"/></g></g></g><g><g><g><path d="m43.19629 16.1416h-9.76367c-.41406 0-.75-.33594-.75-.75s.33594-.75.75-.75h9.76367c.41406 0 .75.33594.75.75s-.33594.75-.75.75z" fill="#0d6efd"/></g></g><g><g><path d="m52.95898 11.30176h-19.52636c-.41406 0-.75-.33594-.75-.75s.33594-.75.75-.75h19.52637c.41406 0 .75.33594.75.75s-.33594.75-.75001.75z" fill="#0d6efd"/></g></g></g><g><g><g><path d="m24.07715 34.22363c-2.87695 0-5.21777-2.34082-5.21777-5.21777 0-2.87207 2.34082-5.20898 5.21777-5.20898 2.87793 0 5.21875 2.33691 5.21875 5.20898 0 2.87695-2.34082 5.21777-5.21875 5.21777zm0-8.92675c-2.0498 0-3.71777 1.66406-3.71777 3.70898 0 2.0498 1.66797 3.71777 3.71777 3.71777 2.05078 0 3.71875-1.66797 3.71875-3.71777 0-2.04492-1.66797-3.70898-3.71875-3.70898z" fill="#0d6efd"/></g></g></g><g><g><g><path d="m43.19629 32.17871h-9.76367c-.41406 0-.75-.33594-.75-.75s.33594-.75.75-.75h9.76367c.41406 0 .75.33594.75.75s-.33594.75-.75.75z" fill="#0d6efd"/></g></g><g><g><path d="m52.95898 27.33887h-19.52636c-.41406 0-.75-.33594-.75-.75s.33594-.75.75-.75h19.52637c.41406 0 .75.33594.75.75s-.33594.75-.75001.75z" fill="#0d6efd"/></g></g></g><g><g><g><path d="m24.07813 50.26172c-2.87695 0-5.2168-2.33984-5.2168-5.21484 0-2.87695 2.33984-5.2168 5.2168-5.2168s5.21777 2.33984 5.21777 5.2168c0 2.875-2.34082 5.21484-5.21777 5.21484zm0-8.93164c-2.0498 0-3.7168 1.66699-3.7168 3.7168 0 2.04883 1.66699 3.71484 3.7168 3.71484s3.71777-1.66602 3.71777-3.71484c0-2.04981-1.66797-3.7168-3.71777-3.7168z" fill="#0d6efd"/></g></g></g><g><g><g><path d="m43.19629 48.21582h-9.76367c-.41406 0-.75-.33594-.75-.75s.33594-.75.75-.75h9.76367c.41406 0 .75.33594.75.75s-.33594.75-.75.75z" fill="#0d6efd"/></g></g><g><g><path d="m52.95898 43.37598h-19.52636c-.41406 0-.75-.33594-.75-.75s.33594-.75.75-.75h19.52637c.41406 0 .75.33594.75.75s-.33594.75-.75001.75z" fill="#0d6efd"/></g></g></g></g></g></svg>