<svg id="Capa_1" enable-background="new 0 0 512 512" viewBox="0 0 512 512" xmlns="http://www.w3.org/2000/svg"><g><path d="m389.454 463.897 49.764-28.728.318-.18c4.997-2.885 8.094-9.049 8.094-17.801v-205.378c0-8.752-3.1-18.499-8.096-27.151l-118.541 5.221z" fill="#ffe177"/><path d="m389.113 213.769 50.421-29.111c-4.995-8.652-11.885-16.21-19.465-20.586l-277.717-160.335c-7.585-4.381-14.481-4.774-19.467-1.888l-.339.202-49.764 28.726z" fill="#fff0ad"/><path d="m91.931 32.844c-15.159-8.752-27.561-1.592-27.561 15.912v25.824l33.284 54.889-33.284 2.76v121.906c0 17.504 12.403 38.986 27.561 47.738l277.716 160.339c15.159 8.752 27.561 1.591 27.561-15.913v-121.905l-48.288-53.715 48.288-3.935v-25.824c0-17.504-12.403-38.986-27.561-47.738z" fill="#ffd15b"/><path d="m397.209 324.394-332.839-192.164v-57.65l332.839 192.165z" fill="#0573ce"/><path d="m97.654 189.879v38.433l166.419 96.082v-38.433z" fill="#fff0ad"/><path d="m297.357 305.178v38.433l66.568 38.433v-38.433z" fill="#fff"/><path d="m180.709 431.559 61.997 60.331 34.832-20.11-34.832-60.331z" fill="#fd9468"/><path d="m170.156 388.64 37.718-37.522-34.832-60.331-34.832 20.11z" fill="#fd9468"/><path d="m242.706 331.007-34.832 20.111 1.853 48.074 32.979 12.257 34.832-20.11z" fill="#fead8a"/><path d="m242.706 411.449-34.832-60.331-34.832 20.11-34.832-60.331-34.832 20.111 34.832 60.331-34.832 20.11 34.832 60.331 34.832-20.11 34.832 60.33 34.832-20.11-34.832-60.331z" fill="#fe7d43"/></g><g/><g/><g/><g/><g/><g/><g/><g/><g/><g/><g/><g/><g/><g/><g/></svg>