<svg id="Flat" viewBox="0 0 64 64" xmlns="http://www.w3.org/2000/svg"><g><path d="m30 28h27c1.6557 0 3 1.3443 3 3v26c0 1.6557-1.3443 3-3 3h-27z" fill="#039be5"/><g fill="#37474f"><path d="m30 36h30v6h-30z"/><path d="m54 52.75h-8c-.4141 0-.75-.3359-.75-.75s.3359-.75.75-.75h8c.4141 0 .75.3359.75.75s-.3359.75-.75.75z"/></g></g><g><rect fill="#eee" height="56" rx="4" width="36" x="4" y="4"/><path d="m4 52h36v4c0 2.2077-1.7923 4-4 4h-28c-2.2077 0-4-1.7923-4-4z" fill="#546e7a"/></g><circle cx="22" cy="23" fill="#43a047" r="13"/><path d="m19.9658 27.728c-.4678 0-.9072-.1821-1.2378-.5132l-4.5083-4.5083c-.293-.293-.293-.7676 0-1.0605s.7676-.293 1.0605 0l4.5088 4.5088c.1279.1279.2256.1279.3535 0l8.0771-8.0771c.293-.293.7676-.293 1.0605 0s.293.7676 0 1.0605l-8.0771 8.0771c-.3306.3306-.77.5127-1.2373.5127z" fill="#2e7d32"/></svg>