<svg id="_x31__x2C_5" height="512" viewBox="0 0 24 24" width="512" xmlns="http://www.w3.org/2000/svg"><path d="m5.75 6.75 2 9.5h13.5l1.746-8.294c.131-.622-.343-1.206-.979-1.206z" fill="#cfd8dc"/><path d="m20.25.75c-1.23 0-2.29.74-2.75 1.79-.46-1.05-1.52-1.79-2.75-1.79-1.65 0-3 1.34-3 2.99 0 3.24 5.75 7.51 5.75 7.51s5.75-4.27 5.75-7.51c0-1.65-1.35-2.99-3-2.99z" fill="#f44336"/><path d="m17.5 12c-.157 0-.314-.049-.447-.148-.62-.461-6.053-4.602-6.053-8.114 0-2.061 1.683-3.738 3.75-3.738 1.063 0 2.054.446 2.75 1.194.696-.748 1.687-1.194 2.75-1.194 2.067 0 3.75 1.677 3.75 3.738 0 3.512-5.433 7.653-6.053 8.114-.133.099-.29.148-.447.148zm-2.75-10.5c-1.24 0-2.25 1.004-2.25 2.238 0 2.138 3.276 5.19 5 6.564 1.724-1.374 5-4.426 5-6.564 0-1.234-1.01-2.238-2.25-2.238-.897 0-1.707.527-2.063 1.342-.238.548-1.137.548-1.375 0-.355-.815-1.165-1.342-2.062-1.342z"/><path d="m21.25 17h-13.5c-.354 0-.661-.249-.734-.596l-2-9.5c-.046-.221.009-.451.152-.627.142-.175.356-.277.582-.277h3.25c.414 0 .75.336.75.75s-.336.75-.75.75h-2.325l1.684 8h12.283l.769-3.654c.086-.407.49-.668.889-.58.405.085.665.483.58.888l-.895 4.25c-.074.347-.381.596-.735.596z"/><path d="m7.749 17c-.347 0-.658-.242-.733-.596l-2.506-11.901c-.12-.573-.632-.99-1.217-.992l-2.546-.011c-.415-.002-.749-.339-.747-.753s.337-.747.75-.747h.003l2.546.011c1.288.005 2.415.924 2.68 2.184l2.506 11.9c.085.405-.175.803-.58.888-.052.012-.104.017-.156.017z"/><path d="m21.25 20h-15c-1.24 0-2.25-1.009-2.25-2.25s1.01-2.25 2.25-2.25h1.5c.414 0 .75.336.75.75s-.336.75-.75.75h-1.5c-.413 0-.75.336-.75.75s.337.75.75.75h15c.414 0 .75.336.75.75s-.336.75-.75.75z"/><circle cx="10.5" cy="22.5" r="1.5"/><circle cx="18.5" cy="22.5" r="1.5"/></svg>